<svg width="16" height="17" viewBox="0 0 16 17" fill="none" xmlns="http://www.w3.org/2000/svg">
<path d="M14 8.31903C14.0023 9.19894 13.7967 10.067 13.4 10.8524C12.9296 11.7935 12.2065 12.5851 11.3116 13.1386C10.4168 13.692 9.3855 13.9853 8.33333 13.9857C7.45342 13.988 6.58541 13.7824 5.8 13.3857L2 14.6524L3.26667 10.8524C2.86995 10.067 2.66437 9.19894 2.66667 8.31903C2.66707 7.26687 2.96041 6.2356 3.51381 5.34073C4.06722 4.44586 4.85884 3.72274 5.8 3.25236C6.58541 2.85565 7.45342 2.65007 8.33333 2.65236H8.66667C10.0562 2.72902 11.3687 3.31554 12.3528 4.2996C13.3368 5.28367 13.9233 6.59613 14 7.9857V8.31903Z" stroke="#A0A4A1" stroke-width="2" stroke-linecap="round" stroke-linejoin="round"/>
</svg>
