<svg width="16" height="17" viewBox="0 0 16 17" fill="none" xmlns="http://www.w3.org/2000/svg">
<g clip-path="url(#clip0_1672_40647)">
<path d="M14.6666 11.9331V13.9331C14.6674 14.1187 14.6294 14.3025 14.555 14.4726C14.4806 14.6427 14.3715 14.7955 14.2347 14.921C14.0979 15.0465 13.9364 15.142 13.7605 15.2015C13.5846 15.261 13.3982 15.2831 13.2133 15.2664C11.1619 15.0435 9.19131 14.3425 7.45998 13.2197C5.84919 12.1962 4.48353 10.8305 3.45998 9.21973C2.33329 7.48053 1.63214 5.50039 1.41331 3.43973C1.39665 3.25537 1.41856 3.06957 1.47764 2.89414C1.53673 2.71872 1.63169 2.55752 1.75649 2.42081C1.88128 2.28409 2.03318 2.17487 2.2025 2.10007C2.37183 2.02528 2.55487 1.98657 2.73998 1.98639H4.73998C5.06351 1.98321 5.37717 2.09778 5.62248 2.30875C5.8678 2.51972 6.02803 2.81269 6.07331 3.13306C6.15772 3.7731 6.31428 4.40154 6.53998 5.00639C6.62967 5.24501 6.64908 5.50434 6.59591 5.75365C6.54274 6.00296 6.41922 6.2318 6.23998 6.41306L5.39331 7.25973C6.34235 8.92876 7.72428 10.3107 9.39331 11.2597L10.24 10.4131C10.4212 10.2338 10.6501 10.1103 10.8994 10.0571C11.1487 10.004 11.408 10.0234 11.6466 10.1131C12.2515 10.3388 12.8799 10.4953 13.52 10.5797C13.8438 10.6254 14.1396 10.7885 14.351 11.0381C14.5624 11.2876 14.6748 11.6061 14.6666 11.9331Z" stroke="#A0A4A1" stroke-width="2" stroke-linecap="round" stroke-linejoin="round"/>
</g>
<defs>
<clipPath id="clip0_1672_40647">
<rect width="16" height="16" fill="white" transform="translate(0 0.652344)"/>
</clipPath>
</defs>
</svg>
