<svg width="33" height="33" viewBox="0 0 33 33" fill="none" xmlns="http://www.w3.org/2000/svg">
<path fill-rule="evenodd" clip-rule="evenodd" d="M2.125 9.69702V6.10327C2.125 4.1389 3.72316 2.54077 5.6875 2.54077H9.28125C9.72997 2.54077 10.0938 2.17699 10.0938 1.72827C10.0938 1.27955 9.72997 0.915771 9.28125 0.915771H5.6875C2.82712 0.915771 0.5 3.24287 0.5 6.10327V9.69702C0.5 10.1457 0.863781 10.5095 1.3125 10.5095C1.76122 10.5095 2.125 10.1457 2.125 9.69702ZM9.28125 31.2908C9.72997 31.2908 10.0938 31.6546 10.0938 32.1033C10.0938 32.552 9.72997 32.9158 9.28125 32.9158H5.6875C2.82712 32.9158 0.5 30.5886 0.5 27.7283V24.1345C0.5 23.6858 0.863781 23.322 1.3125 23.322C1.76122 23.322 2.125 23.6858 2.125 24.1345V27.7283C2.125 29.6926 3.72316 31.2908 5.6875 31.2908H9.28125ZM32.5 24.1345V27.7283C32.5 30.5886 30.1729 32.9158 27.3125 32.9158H23.7188C23.27 32.9158 22.9062 32.552 22.9062 32.1033C22.9062 31.6546 23.27 31.2908 23.7188 31.2908H27.3125C29.2768 31.2908 30.875 29.6926 30.875 27.7283V24.1345C30.875 23.6858 31.2388 23.322 31.6875 23.322C32.1362 23.322 32.5 23.6858 32.5 24.1345ZM32.5 6.10327V9.69702C32.5 10.1457 32.1362 10.5095 31.6875 10.5095C31.2388 10.5095 30.875 10.1457 30.875 9.69702V6.10327C30.875 4.1389 29.2768 2.54077 27.3125 2.54077H23.7188C23.27 2.54077 22.9062 2.17699 22.9062 1.72827C22.9062 1.27955 23.27 0.915771 23.7188 0.915771H27.3125C30.1729 0.915771 32.5 3.24287 32.5 6.10327ZM22.1072 24.5669C22.4495 24.2507 22.4706 23.7169 22.1544 23.3746C21.8382 23.0323 21.3044 23.0111 20.9621 23.3273C19.7441 24.4524 18.1594 25.072 16.5 25.072C14.8406 25.072 13.2559 24.4524 12.0379 23.3273C11.6955 23.0111 11.1618 23.0323 10.8456 23.3746C10.5294 23.7169 10.5505 24.2507 10.8928 24.5669C12.4236 25.9808 14.4149 26.7595 16.5 26.7595C18.5851 26.7595 20.5764 25.9808 22.1072 24.5669ZM18.1875 12.9783V18.9783C18.1875 20.1672 17.2202 21.1345 16.0312 21.1345H15.3438C14.8778 21.1345 14.5 20.7568 14.5 20.2908C14.5 19.8248 14.8778 19.447 15.3438 19.447H16.0312C16.2897 19.447 16.5 19.2367 16.5 18.9783V12.9783C16.5 12.5123 16.8778 12.1345 17.3438 12.1345C17.8097 12.1345 18.1875 12.5123 18.1875 12.9783ZM24 15.3376V12.9314C24 12.4913 23.6432 12.1345 23.2031 12.1345C22.763 12.1345 22.4062 12.4913 22.4062 12.9314V15.3376C22.4062 15.7777 22.763 16.1345 23.2031 16.1345C23.6432 16.1345 24 15.7777 24 15.3376ZM9.1875 15.3376C9.1875 15.7777 9.54428 16.1345 9.98438 16.1345C10.4245 16.1345 10.7812 15.7777 10.7812 15.3376V12.9314C10.7812 12.4913 10.4245 12.1345 9.98438 12.1345C9.54428 12.1345 9.1875 12.4913 9.1875 12.9314V15.3376Z" fill="#454846"/>
</svg>
