<svg width="16" height="17" viewBox="0 0 16 17" fill="none" xmlns="http://www.w3.org/2000/svg">
<g clip-path="url(#clip0_148_13424)">
<path d="M12.6667 7.55969H3.33333C2.59695 7.55969 2 8.15665 2 8.89303V13.5597C2 14.2961 2.59695 14.893 3.33333 14.893H12.6667C13.403 14.893 14 14.2961 14 13.5597V8.89303C14 8.15665 13.403 7.55969 12.6667 7.55969Z" stroke="#A0A4A1" stroke-width="2" stroke-linecap="round" stroke-linejoin="round"/>
<path d="M4.66669 7.55969V4.89303C4.66669 4.00897 5.01788 3.16112 5.643 2.536C6.26812 1.91088 7.11597 1.55969 8.00002 1.55969C8.88408 1.55969 9.73192 1.91088 10.357 2.536C10.9822 3.16112 11.3334 4.00897 11.3334 4.89303V7.55969" stroke="#A0A4A1" stroke-width="2" stroke-linecap="round" stroke-linejoin="round"/>
</g>
<defs>
<clipPath id="clip0_148_13424">
<rect width="16" height="16" fill="white" transform="translate(0 0.226318)"/>
</clipPath>
</defs>
</svg>
