<svg width="30" height="30" viewBox="0 0 30 30" fill="none" xmlns="http://www.w3.org/2000/svg">
  <path
    d="M25.42 4.02626L4.84125 10.8875C4.75699 10.9155 4.68326 10.9685 4.62984 11.0395C4.57642 11.1104 4.54584 11.1959 4.54218 11.2846C4.53852 11.3733 4.56194 11.4611 4.60933 11.5362C4.65672 11.6112 4.72584 11.6701 4.8075 11.705L12.37 14.9463C12.4096 14.9634 12.453 14.97 12.496 14.9654C12.5389 14.9608 12.5799 14.9452 12.615 14.92L20.0288 9.62251C20.2588 9.46001 20.5413 9.74251 20.3788 9.97251L15.0813 17.3863C15.0565 17.4213 15.0412 17.4622 15.0368 17.5049C15.0325 17.5476 15.0391 17.5907 15.0563 17.63L18.2963 25.1925C18.331 25.2742 18.3898 25.3434 18.4648 25.3909C18.5398 25.4384 18.6275 25.4619 18.7162 25.4584C18.8049 25.4549 18.8905 25.4244 18.9615 25.3711C19.0325 25.3178 19.0856 25.2442 19.1138 25.16L25.975 4.58001C26.0008 4.50287 26.0046 4.42006 25.986 4.34089C25.9674 4.26171 25.927 4.18929 25.8695 4.13177C25.812 4.07425 25.7396 4.03391 25.6604 4.01527C25.5812 3.99663 25.4971 4.00044 25.42 4.02626Z"
    fill="white" />
</svg>