<svg width="17" height="17" viewBox="0 0 17 17" fill="none" xmlns="http://www.w3.org/2000/svg">
  <path
    d="M8.50002 8.14582C8.03037 8.14582 7.57995 7.95925 7.24785 7.62716C6.91576 7.29506 6.72919 6.84464 6.72919 6.37499C6.72919 5.90533 6.91576 5.45492 7.24785 5.12282C7.57995 4.79073 8.03037 4.60416 8.50002 4.60416C8.96968 4.60416 9.42009 4.79073 9.75219 5.12282C10.0843 5.45492 10.2709 5.90533 10.2709 6.37499C10.2709 6.60754 10.2251 6.83781 10.1361 7.05266C10.0471 7.26751 9.91663 7.46272 9.75219 7.62716C9.58775 7.79159 9.39254 7.92203 9.17769 8.01103C8.96284 8.10002 8.73257 8.14582 8.50002 8.14582ZM8.50002 1.41666C7.18499 1.41666 5.92382 1.93905 4.99395 2.86892C4.06408 3.79879 3.54169 5.05996 3.54169 6.37499C3.54169 10.0937 8.50002 15.5833 8.50002 15.5833C8.50002 15.5833 13.4584 10.0937 13.4584 6.37499C13.4584 5.05996 12.936 3.79879 12.0061 2.86892C11.0762 1.93905 9.81505 1.41666 8.50002 1.41666Z"
    fill="#34495E" />
</svg>