<svg width="14" height="15" viewBox="0 0 14 15" fill="none" xmlns="http://www.w3.org/2000/svg">
<path d="M6.014 1.25024C6.13896 1.11297 6.2912 1.0033 6.46099 0.928258C6.63078 0.853215 6.81436 0.814453 7 0.814453C7.18563 0.814453 7.36921 0.853215 7.539 0.928258C7.70879 1.0033 7.86104 1.11297 7.986 1.25024L8.666 1.99691C8.79803 2.14186 8.9604 2.2559 9.14154 2.33091C9.32269 2.40593 9.51815 2.44007 9.71399 2.43091L10.7227 2.38424C10.908 2.37551 11.0932 2.40556 11.2662 2.47248C11.4393 2.53939 11.5965 2.64169 11.7278 2.77284C11.859 2.90399 11.9615 3.06109 12.0286 3.2341C12.0957 3.40711 12.1259 3.59222 12.1173 3.77758L12.07 4.78691C12.0608 4.98276 12.095 5.17822 12.17 5.35936C12.245 5.54051 12.3591 5.70288 12.504 5.83491L13.2507 6.51491C13.3879 6.63987 13.4976 6.79212 13.5726 6.96191C13.6477 7.13169 13.6865 7.31528 13.6865 7.50091C13.6865 7.68654 13.6477 7.87013 13.5726 8.03992C13.4976 8.2097 13.3879 8.36195 13.2507 8.48691L12.504 9.16691C12.3591 9.29894 12.245 9.46131 12.17 9.64246C12.095 9.8236 12.0608 10.0191 12.07 10.2149L12.1167 11.2236C12.1254 11.4089 12.0953 11.5941 12.0284 11.7671C11.9615 11.9402 11.8592 12.0974 11.7281 12.2287C11.5969 12.36 11.4398 12.4624 11.2668 12.5295C11.0938 12.5966 10.9087 12.6268 10.7233 12.6182L9.71399 12.5709C9.51815 12.5617 9.32269 12.5959 9.14154 12.6709C8.9604 12.7459 8.79803 12.86 8.666 13.0049L7.986 13.7516C7.86104 13.8889 7.70879 13.9985 7.539 14.0736C7.36921 14.1486 7.18563 14.1874 7 14.1874C6.81436 14.1874 6.63078 14.1486 6.46099 14.0736C6.2912 13.9985 6.13896 13.8889 6.014 13.7516L5.334 13.0049C5.20197 12.86 5.03959 12.7459 4.85845 12.6709C4.6773 12.5959 4.48184 12.5617 4.286 12.5709L3.27733 12.6176C3.09198 12.6263 2.90684 12.5963 2.73377 12.5293C2.56069 12.4624 2.40349 12.3601 2.27222 12.229C2.14095 12.0978 2.03849 11.9407 1.97141 11.7677C1.90434 11.5947 1.87411 11.4096 1.88266 11.2242L1.93 10.2149C1.93916 10.0191 1.90501 9.8236 1.83 9.64246C1.75498 9.46131 1.64094 9.29894 1.496 9.16691L0.749329 8.48691C0.612054 8.36195 0.502385 8.2097 0.427342 8.03992C0.3523 7.87013 0.313538 7.68654 0.313538 7.50091C0.313538 7.31528 0.3523 7.13169 0.427342 6.96191C0.502385 6.79212 0.612054 6.63987 0.749329 6.51491L1.496 5.83491C1.64094 5.70288 1.75498 5.54051 1.83 5.35936C1.90501 5.17822 1.93916 4.98276 1.93 4.78691L1.88333 3.77824C1.8746 3.59289 1.90465 3.40776 1.97156 3.23468C2.03848 3.06161 2.14078 2.90441 2.27192 2.77313C2.40307 2.64186 2.56018 2.53941 2.73319 2.47233C2.90619 2.40525 3.0913 2.37502 3.27666 2.38358L4.286 2.43091C4.48184 2.44007 4.6773 2.40593 4.85845 2.33091C5.03959 2.2559 5.20197 2.14186 5.334 1.99691L6.014 1.25024Z" fill="#2CC84D"/>
<path d="M5 7.5013L6.33333 8.83464L9 6.16797" stroke="white" stroke-linecap="round" stroke-linejoin="round"/>
</svg>
