<svg width="12" height="13" viewBox="0 0 12 13" fill="none" xmlns="http://www.w3.org/2000/svg">
<path d="M8.625 1.625H3.375C2.13236 1.625 1.125 2.63236 1.125 3.875V9.125C1.125 10.3676 2.13236 11.375 3.375 11.375H8.625C9.86764 11.375 10.875 10.3676 10.875 9.125V3.875C10.875 2.63236 9.86764 1.625 8.625 1.625Z" stroke="#A0A4A1" stroke-linejoin="round"/>
<path d="M9.11404 4.05234C8.54076 3.53016 7.50342 2.84766 5.99827 2.84766C4.49311 2.84766 3.45577 3.53016 2.88249 4.05234C2.72675 4.19421 2.63221 4.39104 2.61883 4.60128C2.60545 4.81153 2.67427 5.01875 2.81077 5.17922L3.5917 6.0982C3.68664 6.20942 3.81831 6.2829 3.96281 6.30531C4.10731 6.32771 4.25505 6.29756 4.3792 6.22031C4.75233 5.98992 5.33803 5.71312 5.99873 5.71312C6.65944 5.71312 7.24514 5.98992 7.61826 6.22031C7.74242 6.29756 7.89016 6.32771 8.03466 6.30531C8.17916 6.2829 8.31083 6.20942 8.40576 6.0982L9.18576 5.17922C9.32226 5.01875 9.39108 4.81153 9.3777 4.60128C9.36432 4.39104 9.26979 4.19421 9.11404 4.05234V4.05234Z" stroke="#A0A4A1" stroke-linejoin="round"/>
</svg>
