<svg width="64" height="65" viewBox="0 0 64 65" fill="none" xmlns="http://www.w3.org/2000/svg">
<path d="M58.6667 45.3709V53.3709C58.6697 54.1136 58.5176 54.8487 58.22 55.5292C57.9225 56.2096 57.4861 56.8205 56.9389 57.3226C56.3916 57.8246 55.7455 58.2069 55.042 58.4448C54.3385 58.6827 53.593 58.7711 52.8533 58.7042C44.6476 57.8126 36.7653 55.0086 29.84 50.5176C23.3969 46.4233 17.9342 40.9607 13.84 34.5176C9.33329 27.5608 6.52866 19.6402 5.65334 11.3976C5.5867 10.6602 5.67434 9.91694 5.91068 9.21524C6.14701 8.51355 6.52687 7.86875 7.02605 7.3219C7.52524 6.77505 8.13282 6.33813 8.81012 6.03897C9.48742 5.7398 10.2196 5.58494 10.96 5.58424H18.96C20.2542 5.57151 21.5088 6.02979 22.49 6.87366C23.4713 7.71754 24.1122 8.88943 24.2933 10.1709C24.631 12.7311 25.2572 15.2448 26.16 17.6642C26.5188 18.6187 26.5964 19.656 26.3838 20.6533C26.1711 21.6505 25.677 22.5659 24.96 23.2909L21.5733 26.6776C25.3695 33.3537 30.8972 38.8814 37.5733 42.6776L40.96 39.2909C41.685 38.5739 42.6004 38.0798 43.5977 37.8672C44.5949 37.6545 45.6322 37.7321 46.5867 38.0909C49.0061 38.9937 51.5198 39.6199 54.08 39.9576C55.3754 40.1403 56.5584 40.7928 57.4041 41.7909C58.2498 42.789 58.6991 44.0631 58.6667 45.3709Z" stroke="#D5D7D6" stroke-width="2" stroke-linecap="round" stroke-linejoin="round"/>
</svg>
