<svg width="74" height="74" viewBox="0 0 74 74" fill="none" xmlns="http://www.w3.org/2000/svg">
<rect x="0.5" y="0.5" width="73" height="73" rx="8.5" fill="white" stroke="#F9F9F9"/>
<path d="M55 57.25V52.75C55 50.3631 54.0518 48.0739 52.364 46.386C50.6761 44.6982 48.3869 43.75 46 43.75H28C25.6131 43.75 23.3239 44.6982 21.636 46.386C19.9482 48.0739 19 50.3631 19 52.75V57.25" stroke="#D5D7D6" stroke-width="2" stroke-linecap="round" stroke-linejoin="round"/>
<path d="M37 34.75C41.9706 34.75 46 30.7206 46 25.75C46 20.7794 41.9706 16.75 37 16.75C32.0294 16.75 28 20.7794 28 25.75C28 30.7206 32.0294 34.75 37 34.75Z" stroke="#D5D7D6" stroke-width="2" stroke-linecap="round" stroke-linejoin="round"/>
</svg>
