<svg width="141" height="241" viewBox="0 0 141 241" fill="none" xmlns="http://www.w3.org/2000/svg">
<path opacity="0.75" d="M142.396 186.558V185.522C142.457 180.173 144.725 175.062 148.706 171.3C152.687 167.538 158.061 165.428 163.661 165.428C169.261 165.428 174.635 167.538 178.616 171.3C182.597 175.062 184.865 180.173 184.926 185.522V225.931C184.926 247.653 166.428 265.327 143.691 265.327C120.955 265.327 102.457 247.655 102.457 225.934C102.457 204.623 120.257 187.206 142.396 186.558ZM143.691 251.93C150.906 251.922 157.824 249.18 162.925 244.307C168.027 239.433 170.897 232.824 170.905 225.931V185.522C170.82 183.743 170.02 182.064 168.672 180.834C167.324 179.604 165.531 178.918 163.667 178.918C161.803 178.918 160.011 179.604 158.663 180.834C157.315 182.064 156.515 183.743 156.43 185.522V202.961C152.778 201.115 148.735 200.088 144.606 199.957C140.477 199.826 136.372 200.595 132.6 202.206C128.829 203.817 125.491 206.227 122.84 209.253C120.188 212.279 118.293 215.843 117.297 219.673C116.302 223.503 116.233 227.5 117.095 231.36C117.957 235.219 119.727 238.841 122.272 241.95C124.817 245.058 128.069 247.573 131.783 249.302C135.496 251.031 139.573 251.93 143.704 251.93H143.691Z" fill="#D3F5DB"/>
<path opacity="0.5" d="M146.369 146.887V144.835C146.49 134.237 150.982 124.113 158.869 116.66C166.756 109.208 177.402 105.027 188.495 105.027C199.589 105.027 210.234 109.208 218.121 116.66C226.008 124.113 230.5 134.237 230.621 144.835V224.887C230.621 267.917 193.976 302.93 148.935 302.93C103.893 302.93 67.2486 267.921 67.2486 224.892C67.2486 182.674 102.51 148.17 146.369 146.887ZM148.935 276.39C163.228 276.375 176.931 270.944 187.038 261.288C197.145 251.633 202.83 238.542 202.846 224.887V144.835C202.676 141.311 201.092 137.984 198.421 135.548C195.751 133.111 192.2 131.751 188.508 131.751C184.815 131.751 181.264 133.111 178.594 135.548C175.924 137.984 174.339 141.311 174.17 144.835V179.382C166.936 175.725 158.926 173.69 150.747 173.431C142.568 173.172 134.434 174.695 126.963 177.886C119.492 181.077 112.879 185.851 107.627 191.846C102.374 197.842 98.6198 204.901 96.6479 212.489C94.676 220.077 94.5386 227.994 96.2461 235.64C97.9536 243.286 101.461 250.461 106.503 256.619C111.544 262.777 117.987 267.758 125.344 271.184C132.7 274.61 140.776 276.39 148.96 276.39H148.935Z" fill="#D3F5DB"/>
<path opacity="0.25" d="M153.522 82.1773V78.1952C153.757 57.6326 162.472 37.9884 177.776 23.5272C193.079 9.06606 213.736 0.955078 235.261 0.955078C256.786 0.955078 277.442 9.06606 292.746 23.5272C308.049 37.9884 316.765 57.6326 317 78.1952V233.524C317 317.017 245.896 384.955 158.5 384.955C71.1039 384.955 0 317.027 0 233.534C0 151.617 68.4194 84.6672 153.522 82.1773ZM158.5 333.458C186.234 333.429 212.823 322.891 232.433 304.156C252.044 285.421 263.075 260.019 263.106 233.524V78.1952C262.777 71.3572 259.703 64.9032 254.521 60.1751C249.34 55.4471 242.45 52.8088 235.285 52.8088C228.12 52.8088 221.23 55.4471 216.049 60.1751C210.868 64.9032 207.793 71.3572 207.464 78.1952V145.228C193.429 138.133 177.887 134.185 162.016 133.682C146.146 133.179 130.364 136.136 115.867 142.327C101.37 148.518 88.5397 157.781 78.348 169.414C68.1563 181.047 60.8712 194.745 57.045 209.468C53.2189 224.191 52.9523 239.553 56.2654 254.39C59.5784 269.226 66.3842 283.146 76.1667 295.096C85.9491 307.046 98.4512 316.71 112.725 323.357C126.999 330.004 142.67 333.458 158.549 333.458H158.5Z" fill="#D3F5DB"/>
</svg>
