<svg width="24" height="25" viewBox="0 0 24 25" fill="none" xmlns="http://www.w3.org/2000/svg">
<mask id="mask0_968_4138" style="mask-type:alpha" maskUnits="userSpaceOnUse" x="4" y="4" width="16" height="17">
<path d="M18.7912 11.5051H7.62124L12.5012 6.62508C12.8912 6.23508 12.8912 5.59508 12.5012 5.20508C12.3144 5.01783 12.0608 4.9126 11.7962 4.9126C11.5317 4.9126 11.2781 5.01783 11.0912 5.20508L4.50124 11.7951C4.11124 12.1851 4.11124 12.8151 4.50124 13.2051L11.0912 19.7951C11.4812 20.1851 12.1112 20.1851 12.5012 19.7951C12.8912 19.4051 12.8912 18.7751 12.5012 18.3851L7.62124 13.5051H18.7912C19.3412 13.5051 19.7912 13.0551 19.7912 12.5051C19.7912 11.9551 19.3412 11.5051 18.7912 11.5051Z" fill="white"/>
</mask>
<g mask="url(#mask0_968_4138)">
<rect y="0.5" width="24" height="24" fill="#454846"/>
</g>
</svg>
