<svg width="20" height="21" viewBox="0 0 20 21" fill="none" xmlns="http://www.w3.org/2000/svg">
<path d="M16.6667 5.95834H3.33335C2.41288 5.95834 1.66669 6.70454 1.66669 7.62501V15.9583C1.66669 16.8788 2.41288 17.625 3.33335 17.625H16.6667C17.5872 17.625 18.3334 16.8788 18.3334 15.9583V7.62501C18.3334 6.70454 17.5872 5.95834 16.6667 5.95834Z" stroke="#C4C6C4" stroke-width="2" stroke-linecap="round" stroke-linejoin="round"/>
<path d="M13.3334 17.625V4.29167C13.3334 3.84964 13.1578 3.42572 12.8452 3.11316C12.5326 2.80059 12.1087 2.625 11.6667 2.625H8.33335C7.89133 2.625 7.4674 2.80059 7.15484 3.11316C6.84228 3.42572 6.66669 3.84964 6.66669 4.29167V17.625" stroke="#C4C6C4" stroke-width="2" stroke-linecap="round" stroke-linejoin="round"/>
</svg>
