<svg width="15" height="14" viewBox="0 0 15 14" fill="none" xmlns="http://www.w3.org/2000/svg">
  <path
    d="M1.25 5.24999C1.25 4.14982 1.25 3.60032 1.61625 3.25849C1.9825 2.91666 2.57125 2.91666 3.75 2.91666H11.25C12.4287 2.91666 13.0175 2.91666 13.3837 3.25849C13.75 3.60032 13.75 4.14982 13.75 5.24999C13.75 5.52474 13.75 5.66241 13.6587 5.74816C13.5669 5.83332 13.4187 5.83332 13.125 5.83332H1.875C1.58062 5.83332 1.43312 5.83332 1.34125 5.74816C1.25 5.66241 1.25 5.52416 1.25 5.24999ZM1.25 10.5C1.25 11.6002 1.25 12.1497 1.61625 12.4915C1.9825 12.8333 2.57125 12.8333 3.75 12.8333H11.25C12.4287 12.8333 13.0175 12.8333 13.3837 12.4915C13.75 12.1497 13.75 11.6002 13.75 10.5V7.58332C13.75 7.30857 13.75 7.17091 13.6587 7.08516C13.5669 6.99999 13.4187 6.99999 13.125 6.99999H1.875C1.58062 6.99999 1.43312 6.99999 1.34125 7.08516C1.25 7.17091 1.25 7.30916 1.25 7.58332V10.5Z"
    fill="#34495E" />
  <path d="M4.375 1.75V3.5M10.625 1.75V3.5" stroke="#34495E" stroke-width="2.5"
    stroke-linecap="round" />
</svg>