<svg width="64" height="64" viewBox="0 0 64 64" fill="none" xmlns="http://www.w3.org/2000/svg">
<path d="M61.3334 50.6667C61.3334 52.0812 60.7715 53.4377 59.7713 54.4379C58.7711 55.4381 57.4145 56 56 56H8.00004C6.58555 56 5.22899 55.4381 4.2288 54.4379C3.22861 53.4377 2.6667 52.0812 2.6667 50.6667V21.3333C2.6667 19.9188 3.22861 18.5623 4.2288 17.5621C5.22899 16.5619 6.58555 16 8.00004 16H18.6667L24 8H40L45.3334 16H56C57.4145 16 58.7711 16.5619 59.7713 17.5621C60.7715 18.5623 61.3334 19.9188 61.3334 21.3333V50.6667Z" stroke="#D5D7D6" stroke-width="4" stroke-linecap="round" stroke-linejoin="round"/>
<path d="M32 45.3333C37.891 45.3333 42.6666 40.5577 42.6666 34.6667C42.6666 28.7756 37.891 24 32 24C26.1089 24 21.3333 28.7756 21.3333 34.6667C21.3333 40.5577 26.1089 45.3333 32 45.3333Z" stroke="#D5D7D6" stroke-width="4" stroke-linecap="round" stroke-linejoin="round"/>
</svg>
