<svg width="17" height="17" viewBox="0 0 17 17" fill="none" xmlns="http://www.w3.org/2000/svg">
  <g clip-path="url(#clip0_97_466)">
    <path
      d="M8.50002 1.41666C12.4121 1.41666 15.5834 4.58786 15.5834 8.49999C15.5834 12.4121 12.4121 15.5833 8.50002 15.5833C4.5879 15.5833 1.41669 12.4121 1.41669 8.49999C1.41669 4.58786 4.5879 1.41666 8.50002 1.41666ZM8.50002 4.24999C8.31216 4.24999 8.13199 4.32462 7.99915 4.45746C7.86631 4.59029 7.79169 4.77046 7.79169 4.95832V8.49999C7.79173 8.68784 7.86638 8.86797 7.99923 9.00078L10.1242 11.1258C10.2578 11.2548 10.4367 11.3262 10.6225 11.3246C10.8082 11.323 10.9859 11.2485 11.1172 11.1172C11.2485 10.9858 11.323 10.8082 11.3246 10.6224C11.3262 10.4367 11.2548 10.2578 11.1258 10.1242L9.20835 8.20674V4.95832C9.20835 4.77046 9.13373 4.59029 9.00089 4.45746C8.86805 4.32462 8.68788 4.24999 8.50002 4.24999Z"
      fill="#34495E" />
  </g>
  <defs>
    <clipPath id="clip0_97_466">
      <rect width="17" height="17" fill="white" />
    </clipPath>
  </defs>
</svg>