<svg width="16" height="17" viewBox="0 0 16 17" fill="none" xmlns="http://www.w3.org/2000/svg">
<mask id="mask0_2343_7690" style="mask-type:alpha" maskUnits="userSpaceOnUse" x="2" y="2" width="12" height="13">
<path d="M10.2148 12.4583C8.54151 12.4583 7.09484 11.5117 6.37484 10.125H9.54818C9.91484 10.125 10.2148 9.825 10.2148 9.45833C10.2148 9.09167 9.91484 8.79167 9.54818 8.79167H5.93484C5.90151 8.57167 5.88151 8.35167 5.88151 8.125C5.88151 7.89833 5.90151 7.67833 5.93484 7.45833H9.54818C9.91484 7.45833 10.2148 7.15833 10.2148 6.79167C10.2148 6.425 9.91484 6.125 9.54818 6.125H6.37484C7.09484 4.73833 8.54818 3.79167 10.2148 3.79167C11.0482 3.79167 11.8282 4.03167 12.4948 4.43833C12.8282 4.645 13.2615 4.61167 13.5415 4.33167C13.9282 3.945 13.8415 3.31167 13.3748 3.025C12.4548 2.45833 11.3682 2.125 10.2148 2.125C7.60151 2.125 5.38818 3.79833 4.56151 6.125H2.88151C2.51484 6.125 2.21484 6.425 2.21484 6.79167C2.21484 7.15833 2.51484 7.45833 2.88151 7.45833H4.25484C4.22818 7.67833 4.21484 7.89833 4.21484 8.125C4.21484 8.35167 4.22818 8.57167 4.25484 8.79167H2.88151C2.51484 8.79167 2.21484 9.09167 2.21484 9.45833C2.21484 9.825 2.51484 10.125 2.88151 10.125H4.56151C5.38818 12.4517 7.60151 14.125 10.2148 14.125C11.3748 14.125 12.4548 13.7983 13.3748 13.225C13.8348 12.9383 13.9215 12.2983 13.5348 11.9117C13.2548 11.6317 12.8215 11.5983 12.4882 11.8117C11.8282 12.225 11.0548 12.4583 10.2148 12.4583Z" fill="white"/>
</mask>
<g mask="url(#mask0_2343_7690)">
<rect y="0.125" width="16" height="16" fill="black" fill-opacity="0.54"/>
</g>
</svg>
