<svg width="16" height="17" viewBox="0 0 16 17" fill="none" xmlns="http://www.w3.org/2000/svg">
<g clip-path="url(#clip0_158_13871)">
<path d="M6.59999 3.32676C7.05888 3.21935 7.5287 3.16566 7.99999 3.16676C12.6667 3.16676 15.3333 8.5001 15.3333 8.5001C14.9286 9.25717 14.446 9.96992 13.8933 10.6268M9.41332 9.91343C9.23022 10.1099 9.00942 10.2675 8.76409 10.3768C8.51876 10.4862 8.25392 10.5449 7.98538 10.5497C7.71684 10.5544 7.4501 10.505 7.20106 10.4044C6.95203 10.3038 6.7258 10.1541 6.53589 9.9642C6.34597 9.77428 6.19625 9.54806 6.09566 9.29902C5.99507 9.04999 5.94567 8.78325 5.95041 8.5147C5.95515 8.24616 6.01393 7.98133 6.12324 7.736C6.23255 7.49067 6.39016 7.26986 6.58666 7.08677M11.96 12.4601C10.8204 13.3288 9.43273 13.81 7.99999 13.8334C3.33332 13.8334 0.666656 8.5001 0.666656 8.5001C1.49592 6.9547 2.64608 5.6045 4.03999 4.5401L11.96 12.4601Z" stroke="#818682" stroke-width="2" stroke-linecap="round" stroke-linejoin="round"/>
<path d="M0.666656 1.16675L15.3333 15.8334" stroke="#818682" stroke-width="2" stroke-linecap="round" stroke-linejoin="round"/>
</g>
<defs>
<clipPath id="clip0_158_13871">
<rect width="16" height="16" fill="white" transform="translate(0 0.5)"/>
</clipPath>
</defs>
</svg>
