<svg width="21" height="20" viewBox="0 0 21 20" fill="none" xmlns="http://www.w3.org/2000/svg">
<g opacity="0.35">
<path d="M10.542 9.44266C8.50184 9.44266 6.46165 9.44266 4.42146 9.44266C3.75159 9.44266 3.08513 9.44266 2.41527 9.44604C2.15344 9.44604 1.94942 9.5946 1.87122 9.82758C1.79301 10.0606 1.85761 10.3273 2.07184 10.4556C2.19425 10.5299 2.35746 10.567 2.50368 10.567C4.46906 10.5738 6.43785 10.5704 8.40323 10.5704C11.7866 10.5704 15.1699 10.5704 18.5532 10.5738C18.628 10.5738 18.6994 10.5704 18.7742 10.5603C19.0292 10.5231 19.2231 10.3172 19.2503 10.0572C19.2741 9.8107 19.1142 9.55409 18.8694 9.4798C18.7674 9.44941 18.6586 9.44266 18.5498 9.44266C15.8805 9.44266 13.2113 9.44266 10.542 9.44266ZM15.4215 1.68692C14.7584 1.68692 14.0954 1.68017 13.4323 1.69368C13.2929 1.69705 13.1399 1.74095 13.0209 1.81185C12.8135 1.93678 12.7454 2.19677 12.8203 2.42299C12.9019 2.67285 13.1093 2.81804 13.4085 2.81804C14.7006 2.82142 15.9928 2.82142 17.2849 2.82142C17.6521 2.82142 17.7949 2.95985 17.7949 3.33126C17.7949 4.60419 17.7949 5.87374 17.7949 7.14667C17.7949 7.52145 18.0363 7.78819 18.373 7.78482C18.7028 7.78144 18.9408 7.52145 18.9408 7.1568C18.9408 5.87374 18.9442 4.59068 18.9408 3.30763C18.9374 2.35884 18.2676 1.69368 17.3121 1.6903C16.6796 1.68692 16.0506 1.68692 15.4215 1.68692ZM5.67278 1.67342C5.02671 1.67342 4.38065 1.67342 3.73459 1.67342C2.86071 1.67342 2.16704 2.32507 2.15684 3.1962C2.13984 4.52315 2.15004 5.8501 2.15344 7.17705C2.15344 7.51808 2.38806 7.75443 2.7077 7.75781C3.03753 7.76456 3.27215 7.53496 3.28915 7.18381C3.29595 7.03862 3.29255 6.89005 3.29255 6.74487C3.29255 5.59687 3.29255 4.44887 3.28915 3.30087C3.28915 3.12192 3.31975 2.9531 3.48977 2.86869C3.59518 2.81804 3.72779 2.79778 3.8502 2.79778C5.10152 2.7944 6.35284 2.79778 7.60416 2.7944C7.69937 2.7944 7.79798 2.7944 7.88979 2.76739C8.14821 2.69649 8.32503 2.42975 8.29442 2.17313C8.26042 1.88276 8.0292 1.67004 7.72997 1.66666C7.04311 1.67004 6.35964 1.67342 5.67278 1.67342ZM5.67278 18.3261C6.35284 18.3261 7.0329 18.3295 7.71297 18.3261C8.0462 18.3261 8.29442 18.0864 8.29782 17.7724C8.30122 17.455 8.0496 17.2085 7.70617 17.2052C7.29133 17.2018 6.87989 17.2052 6.46505 17.2052C5.55716 17.2052 4.65268 17.2052 3.74479 17.2052C3.46597 17.2052 3.29935 17.0397 3.28915 16.7696C3.28575 16.6919 3.28915 16.6109 3.28915 16.5332C3.28915 15.3076 3.28915 14.0819 3.28575 12.8529C3.28575 12.4882 3.05453 12.2451 2.7213 12.2451C2.37786 12.2418 2.14664 12.4882 2.14664 12.8596C2.14664 14.1596 2.14324 15.4595 2.14664 16.7595C2.15004 17.6542 2.8097 18.316 3.71419 18.3295C4.37045 18.3329 5.01991 18.3261 5.67278 18.3261ZM15.4147 18.3261C16.037 18.3261 16.6626 18.3228 17.2849 18.3261C18.271 18.3295 18.9374 17.6677 18.9374 16.6852C18.9374 15.7735 18.9374 14.8619 18.9374 13.9502C18.9374 13.5788 18.9408 13.2074 18.9374 12.836C18.934 12.468 18.6722 12.2215 18.3254 12.2384C18.0125 12.2553 17.7949 12.5085 17.7949 12.863C17.7949 14.1224 17.7949 15.3852 17.7949 16.6447C17.7949 17.0667 17.6589 17.2018 17.2373 17.2018C15.9792 17.2018 14.721 17.2018 13.4629 17.2018C13.3779 17.2018 13.2895 17.2018 13.2113 17.222C12.9427 17.2896 12.7624 17.5529 12.7931 17.823C12.8271 18.11 13.0583 18.3228 13.3609 18.3261C14.0444 18.3295 14.7312 18.3261 15.4147 18.3261ZM10.5454 6.65033C9.60015 6.64695 8.65486 6.64695 7.70617 6.64695C7.19612 6.64695 6.68607 6.6402 6.17602 6.65033C5.83259 6.65708 5.58437 6.91369 5.59117 7.22432C5.59797 7.53496 5.84619 7.76794 6.17942 7.77806C6.26443 7.78144 6.34944 7.77806 6.43445 7.77806C8.49504 7.77806 10.559 7.77806 12.6196 7.77806C13.3745 7.77806 14.126 7.77806 14.8808 7.77469C15.2413 7.77469 15.4861 7.53496 15.4861 7.20744C15.4861 6.86642 15.2345 6.64695 14.84 6.64695C13.4119 6.65033 11.977 6.65033 10.5454 6.65033ZM10.5284 13.3627C11.977 13.3627 13.4289 13.3627 14.8774 13.3594C15.2413 13.3594 15.4895 13.1298 15.4895 12.7989C15.4895 12.468 15.2447 12.2384 14.8808 12.2384C11.994 12.2384 9.1037 12.235 6.21683 12.235C5.85299 12.235 5.59117 12.4781 5.59457 12.8022C5.59797 13.123 5.85639 13.356 6.21343 13.356C7.65176 13.3627 9.0901 13.3627 10.5284 13.3627Z" fill="white"/>
<path d="M10.542 9.44264C13.2113 9.44264 15.8805 9.44264 18.5498 9.44264C18.6552 9.44264 18.7674 9.44939 18.8694 9.47978C19.1142 9.55407 19.2741 9.81068 19.2503 10.0572C19.2231 10.3138 19.0326 10.5197 18.7742 10.5603C18.7028 10.5704 18.628 10.5738 18.5532 10.5738C15.1699 10.5738 11.7866 10.5738 8.40323 10.5704C6.43785 10.5704 4.46906 10.5738 2.50368 10.567C2.35746 10.567 2.19425 10.5299 2.07184 10.4556C1.85761 10.3273 1.79301 10.0639 1.87122 9.82756C1.94942 9.59458 2.15344 9.44602 2.41527 9.44602C3.08513 9.44264 3.75159 9.44602 4.42146 9.44264C6.46165 9.44264 8.50184 9.44264 10.542 9.44264Z" fill="#121212"/>
<path d="M15.4216 1.68691C16.0507 1.68691 16.6798 1.68691 17.3088 1.68691C18.2609 1.69029 18.9342 2.35545 18.9376 3.30424C18.941 4.58729 18.9376 5.87035 18.9376 7.1534C18.9376 7.51806 18.703 7.77805 18.3697 7.78143C18.0331 7.7848 17.7917 7.51806 17.7917 7.14327C17.7917 5.87035 17.7917 4.6008 17.7917 3.32787C17.7917 2.95646 17.6489 2.81803 17.2816 2.81803C15.9895 2.81803 14.6974 2.81803 13.4052 2.81465C13.106 2.81465 12.8986 2.66946 12.817 2.4196C12.7422 2.19338 12.8136 1.93339 13.0176 1.80847C13.1366 1.73756 13.2896 1.69029 13.4291 1.69029C14.0955 1.68016 14.7586 1.68691 15.4216 1.68691Z" fill="#121212"/>
<path d="M5.67291 1.67341C6.35978 1.67341 7.04324 1.67004 7.73011 1.67341C8.02934 1.67679 8.26056 1.88951 8.29456 2.17988C8.32516 2.43649 8.15175 2.69986 7.88992 2.77414C7.79811 2.79778 7.6995 2.80115 7.6043 2.80115C6.35298 2.80115 5.10166 2.79778 3.85034 2.80453C3.73133 2.80453 3.59871 2.82479 3.4899 2.87543C3.31989 2.95985 3.28928 3.12867 3.28928 3.30762C3.29269 4.45562 3.29269 5.60362 3.29269 6.75162C3.29269 6.8968 3.29609 7.04537 3.28928 7.19056C3.27228 7.54171 3.03766 7.77131 2.70783 7.76455C2.3882 7.7578 2.15358 7.52145 2.15358 7.1838C2.15018 5.8501 2.13998 4.52315 2.15698 3.1962C2.16718 2.32507 2.86084 1.67341 3.73473 1.67341C4.38079 1.67341 5.02685 1.67341 5.67291 1.67341Z" fill="#121212"/>
<path d="M5.67272 18.3262C5.01985 18.3262 4.37039 18.3329 3.71753 18.3262C2.81644 18.316 2.15338 17.6509 2.14998 16.7561C2.14658 15.4562 2.14658 14.1562 2.14998 12.8563C2.14998 12.4849 2.3812 12.2384 2.72464 12.2418C3.05787 12.2451 3.28569 12.4849 3.28909 12.8495C3.29249 14.0752 3.29249 15.3008 3.29249 16.5299C3.29249 16.6075 3.28909 16.6886 3.29249 16.7662C3.30269 17.0397 3.46931 17.2018 3.74813 17.2018C4.65602 17.2052 5.56051 17.2018 6.46839 17.2018C6.88323 17.2018 7.29467 17.2018 7.70951 17.2018C8.05294 17.2052 8.30457 17.4483 8.30117 17.769C8.29777 18.083 8.05294 18.3228 7.71631 18.3228C7.03285 18.3262 6.35278 18.3262 5.67272 18.3262Z" fill="#121212"/>
<path d="M15.4148 18.3261C14.7279 18.3261 14.0444 18.3295 13.3576 18.3261C13.0584 18.3228 12.8237 18.1101 12.7897 17.8231C12.7591 17.5563 12.9393 17.2896 13.208 17.222C13.2896 17.2018 13.378 17.2018 13.4596 17.2018C14.7177 17.2018 15.9758 17.2018 17.234 17.2018C17.6556 17.2018 17.7916 17.0667 17.7916 16.6447C17.7916 15.3852 17.7916 14.1225 17.7916 12.863C17.7916 12.5085 18.0092 12.2553 18.3221 12.2384C18.6689 12.2181 18.9273 12.468 18.9341 12.836C18.9409 13.2074 18.9341 13.5788 18.9341 13.9503C18.9341 14.8619 18.9341 15.7735 18.9341 16.6852C18.9341 17.6677 18.2676 18.3295 17.2816 18.3261C16.6627 18.3228 16.0404 18.3261 15.4148 18.3261Z" fill="#121212"/>
<path d="M10.5454 6.65033C11.977 6.65033 13.4119 6.65033 14.8434 6.65033C15.2379 6.65033 15.4861 6.8698 15.4895 7.21082C15.4895 7.53834 15.2413 7.77807 14.8842 7.77807C14.1294 7.78144 13.3779 7.78144 12.623 7.78144C10.5624 7.78144 8.49843 7.78144 6.43784 7.78144C6.35283 7.78144 6.26782 7.78482 6.18281 7.78144C5.84618 7.77131 5.60136 7.53834 5.59456 7.22771C5.58776 6.91369 5.83598 6.65708 6.17941 6.65371C6.68946 6.64695 7.19951 6.65033 7.70956 6.65033C8.65145 6.65033 9.60014 6.65033 10.5454 6.65033Z" fill="#121212"/>
<path d="M10.5283 13.3627C9.08999 13.3627 7.65165 13.3627 6.21331 13.3627C5.85628 13.3627 5.59785 13.1298 5.59445 12.809C5.59105 12.4815 5.84948 12.2418 6.21671 12.2418C9.10359 12.2418 11.9939 12.2418 14.8807 12.2451C15.2446 12.2451 15.4894 12.4747 15.4894 12.8056C15.4894 13.1365 15.2412 13.3627 14.8773 13.3661C13.4288 13.3627 11.9769 13.3627 10.5283 13.3627Z" fill="#121212"/>
</g>
</svg>
