<svg width="64" height="65" viewBox="0 0 64 65" fill="none" xmlns="http://www.w3.org/2000/svg">
<path d="M21.3333 8.48389H13.3333C11.9188 8.48389 10.5623 9.04579 9.5621 10.046C8.5619 11.0462 8 12.4027 8 13.8172V21.8172M56 21.8172V13.8172C56 12.4027 55.4381 11.0462 54.4379 10.046C53.4377 9.04579 52.0812 8.48389 50.6667 8.48389H42.6667M42.6667 56.4839H50.6667C52.0812 56.4839 53.4377 55.922 54.4379 54.9218C55.4381 53.9216 56 52.565 56 51.1506V43.1506M8 43.1506V51.1506C8 52.565 8.5619 53.9216 9.5621 54.9218C10.5623 55.922 11.9188 56.4839 13.3333 56.4839H21.3333" stroke="#D5D7D6" stroke-width="4" stroke-linecap="round" stroke-linejoin="round"/>
<path d="M17.6333 22.4839H46.3667" stroke="#E7E8E8" stroke-width="4" stroke-linecap="round" stroke-linejoin="round"/>
<path d="M17.6333 32.4839H46.3667" stroke="#E7E8E8" stroke-width="4" stroke-linecap="round" stroke-linejoin="round"/>
<path d="M17.6333 42.4839H33.194" stroke="#E7E8E8" stroke-width="4" stroke-linecap="round" stroke-linejoin="round"/>
</svg>
