<svg width="45" height="45" viewBox="0 0 45 45" fill="none" xmlns="http://www.w3.org/2000/svg">
<rect x="0.5" y="0.5" width="44" height="44" rx="8" fill="#F3F4F3" fill-opacity="0.4"/>
<path d="M31.5 22.5V29.5C31.5 30.0304 31.2893 30.5391 30.9142 30.9142C30.5391 31.2893 30.0304 31.5 29.5 31.5H26.5M31.5 22.5C25.058 22.5 21.395 24.485 19.445 26.743M31.5 22.5V21M26.5 31.5H15.5C14.9696 31.5 14.4609 31.2893 14.0858 30.9142C13.7107 30.5391 13.5 30.0304 13.5 29.5V26.5M26.5 31.5C24.796 28.732 22.073 27.352 19.445 26.743M19.445 26.743C17.137 26.207 14.903 26.266 13.5 26.5M19.445 26.743L13.5 26.5M13.5 26.5V15.5C13.5 14.9696 13.7107 14.4609 14.0858 14.0858C14.4609 13.7107 14.9696 13.5 15.5 13.5H23.5M29.5 12.5V15.5M29.5 15.5V18.5M29.5 15.5H32.5M29.5 15.5H26.5M19 17.5C18.5 17.5 17.5 17.8 17.5 19C17.5 20.2 18.5 20.5 19 20.5C19.5 20.5 20.5 20.2 20.5 19C20.5 17.8 19.5 17.5 19 17.5Z" stroke="white" stroke-width="2" stroke-linecap="round" stroke-linejoin="round"/>
<rect x="1.5" y="1.5" width="42" height="42" rx="7" stroke="white" stroke-opacity="0.8" stroke-width="2"/>
</svg>
